<svg width="27" height="38" viewBox="0 0 27 38" fill="none" xmlns="http://www.w3.org/2000/svg">
<path fill-rule="evenodd" clip-rule="evenodd" d="M12.5002 37.4101L12.8134 32.8696L13.4291 31.5497L12.2531 30.7737L13.213 29.9307L13.4743 27.809L12.1578 27.207L13.7845 26.1867L13.0924 20.9927L13.2708 19.7248L17.9489 18.5644L15.6966 17.3395L13.5086 14.1357L11.4158 10.9319L10.2395 8.88898L6.56404 12.9107L4.47118 16.5856L3.90039 18.5644L2.27847 22.2668L0.951321 20.3547L0 12.7223L2.26763 5.81027L6.23787 2.02365L13.7387 0L22.6859 4.12238L26.7985 13.0991L24.6176 21.6013L25.6189 22.0576L23.3719 28.9564L21.7549 29.82L20.2914 34.1807L12.5002 37.4101ZM9.98879 30.1546L7.22997 30.7199L9.89364 31.7564L9.418 30.9084L9.98879 30.1546ZM9.58924 19.9799L9.03746 20.8259L6.84943 21.0143L5.28537 20.2892L7.1919 19.5548L9.58924 19.9799ZM12.4622 19.5067L7.44875 18.2794L5.82201 18.3644L7.1919 18.6195L11.0112 19.8271L12.4622 19.5067Z" fill="#24292E"/>
</svg>
