<svg id="mwroteLogo" width="152" height="30" viewBox="0 0 152 30" xmlns="http://www.w3.org/2000/svg"><path d="M1.312 22.424c1.56.183 3.482-.462 4.685.551 1.283 1.08-2.503 4.961-.827 4.961.91 0 33.385-27.664 34.177-23.703.413 2.062-19.021 24.322-16.261 25.357 1.407.528 30.784-25.598 37.484-28.389.473-.197-11.945 25.814-9.853 27.332C54.294 31.128 63.234 15.937 63 16.522c-10.402 26.004 8.313.893 9.326 1.399 1.27.635-2.495 8.431-1.4 10.258 2.489 4.147 12.747-14.405 10.259-10.258-.6.999-5.438 8.906-2.783 10.234 8.658 4.334 18.048-15.222 8.169-9.295-2.765 1.66 14.627-.445 14.932-.292 1.329.664-8.906 7.243-8.198 9.368.654 1.963 15.999-4.408 15.224-6.733-1.263-3.79-8.025 5.081-7.612 6.733.709 2.836 13.934-4.481 10.54-7.026-4.197-3.148-6.63 4.979-3.513 6.148 8.77 3.289 20.839-14.346 19.323-14.346-2.76 0-11.378 12.768-7.905 13.76 8.2 2.344 22.549-10.498 17.859-7.612-17.882 11.004 6.595 6.008 13.468 4.099" stroke="inherit" stroke-width="inherit" fill="none" fill-rule="evenodd" stroke-linecap="round" stroke-linejoin="round"/><path d="M114.223 16.376c8.173-.241 16.346-.182 24.52-.183"/></svg>
